HIERARCHY
ROOT Hips
{
	OFFSET 0.000000 0.000000 0.000000 
	CHANNELS 6 Xposition Yposition Zposition Zrotation Yrotation Xrotation
	JOINT LeftUpLeg
	{
		OFFSET 1.363060 -1.794630 0.839290 
		CHANNELS 3 Zrotation Yrotation Xrotation
		JOINT LeftLeg
		{
			OFFSET 2.448110 -6.726130 0.000000 
			CHANNELS 3 Zrotation Yrotation Xrotation
			JOINT LeftFoot
			{
				OFFSET 2.562200 -7.039590 0.000000 
				CHANNELS 3 Zrotation Yrotation Xrotation
				JOINT LeftToeBase
				{
					OFFSET 0.157640 -0.433110 2.322550 
					CHANNELS 3 Zrotation Yrotation Xrotation
					End Site
					{
						OFFSET 0.000000 0.000000 0.000000 
					}
				}
			}
		}
	}
	JOINT RightUpLeg
	{
		OFFSET -1.305520 -1.794630 0.839290 
		CHANNELS 3 Zrotation Yrotation Xrotation
		JOINT RightLeg
		{
			OFFSET -2.542530 -6.985550 0.000000 
			CHANNELS 3 Zrotation Yrotation Xrotation
			JOINT RightFoot
			{
				OFFSET -2.568260 -7.056230 0.000000 
				CHANNELS 3 Zrotation Yrotation Xrotation
				JOINT RightToeBase
				{
					OFFSET -0.164730 -0.452590 2.363150 
					CHANNELS 3 Zrotation Yrotation Xrotation
					End Site
					{
						OFFSET 0.000000 0.000000 0.000000 
					}
				}
			}
		}
	}
	JOINT Spine
	{
		OFFSET 0.028270 2.035590 -0.193380 
		CHANNELS 3 Zrotation Yrotation Xrotation
		JOINT Spine1
		{
			OFFSET 0.056720 2.048850 -0.042750 
			CHANNELS 3 Zrotation Yrotation Xrotation
			JOINT Neck1
			{
				OFFSET -0.054170 1.746240 0.172020 
				CHANNELS 3 Zrotation Yrotation Xrotation
				JOINT Head
				{
					OFFSET 0.104070 1.761360 -0.123970 
					CHANNELS 3 Zrotation Yrotation Xrotation
					End Site
					{
						OFFSET 0.000000 0.000000 0.000000 
					}
				}
			}
			JOINT LeftArm
			{
				OFFSET 3.362410 1.200890 -0.311210 
				CHANNELS 3 Zrotation Yrotation Xrotation
				JOINT LeftForeArm
				{
					OFFSET 4.983000 -0.000000 -0.000000 
					CHANNELS 3 Zrotation Yrotation Xrotation
					JOINT LeftHand
					{
						OFFSET 3.483560 -0.000000 -0.000000 
						CHANNELS 3 Zrotation Yrotation Xrotation
						JOINT LeftHandIndex1
						{
							OFFSET 0.715260 -0.000000 -0.000000 
							CHANNELS 3 Zrotation Yrotation Xrotation
							End Site
							{
								OFFSET 0.000000 0.000000 0.000000 
							}
						}
					}
				}
			}
			JOINT RightArm
			{
				OFFSET -3.136600 1.374050 -0.404650 
				CHANNELS 3 Zrotation Yrotation Xrotation
				JOINT RightForeArm
				{
					OFFSET -5.241900 -0.000000 -0.000000 
					CHANNELS 3 Zrotation Yrotation Xrotation
					JOINT RightHand
					{
						OFFSET -3.444170 -0.000000 -0.000000 
						CHANNELS 3 Zrotation Yrotation Xrotation
						JOINT RightHandIndex1
						{
							OFFSET -0.622530 -0.000000 -0.000000 
							CHANNELS 3 Zrotation Yrotation Xrotation
							End Site
							{
								OFFSET 0.000000 0.000000 0.000000 
							}
						}
					}
				}
			}
		}
	}
}
MOTION
Frames: 9
Frame Time: 0.041667
0.469426 17.834076 -0.230026 -0.746129 -0.452379 -3.891274 -19.564728 -12.506171 4.622889 -1.002844 4.755282 17.055794 -1.775993 8.288988 -2.445268 0.639800 -5.117400 -14.243800 21.858253 13.019192 5.447679 -0.238672 -5.998044 18.635632 2.190853 -11.800613 -6.897503 -0.680100 5.273000 -14.688800 0.737920 1.133378 3.041170 -1.077042 0.806841 -7.320060 6.584815 -16.194242 21.399522 3.742800 -8.412800 12.219700 -87.756876 -2.181605 19.584050 14.961105 -18.103568 -1.895530 0.532809 0.770906 2.777260 -7.125000 0.000000 0.000000 85.631261 -1.628162 25.372361 -18.822239 24.067905 -3.243588 -0.909385 0.014522 9.970722 7.125000 0.000000 0.000000 
0.469873 17.833183 -0.230137 -0.740623 -0.449297 -3.903049 -19.578112 -12.505320 4.650817 -1.006260 4.746301 17.032830 -1.781394 8.310921 -2.461162 0.626300 -5.064200 -14.091600 21.837749 12.967844 5.450852 -0.237516 -5.990729 18.617097 2.192459 -11.801305 -6.850782 -0.705700 5.369300 -14.964900 0.724589 1.133873 3.043477 -1.105705 0.806550 -7.323274 6.562050 -16.200395 21.421048 3.725000 -8.413300 12.228800 -87.724229 -2.198494 19.623226 14.927189 -18.054392 -1.885392 0.528329 0.769802 2.779690 -7.125000 0.000000 0.000000 85.640946 -1.639934 25.445351 -18.811405 24.054733 -3.244081 -0.921647 0.006689 9.869587 7.125000 0.000000 0.000000 
0.469873 17.832736 -0.231030 -0.657248 -0.454820 -3.899715 -19.673050 -12.489085 4.659306 -1.012338 4.735240 16.998508 -1.787744 8.339192 -2.466995 0.637600 -5.108800 -14.219000 21.731351 12.947759 5.402458 -0.243031 -6.001796 18.648487 2.188501 -11.777506 -6.800197 -0.725900 5.443800 -15.178800 0.704426 1.122828 3.037266 -1.082556 0.804742 -7.336451 6.547812 -16.179559 21.432891 3.721100 -8.404800 12.227400 -87.711415 -2.200527 19.653940 14.902824 -18.019636 -1.878617 0.524168 0.773072 2.747678 -7.125000 0.000000 0.000000 85.654583 -1.638301 25.412919 -18.770904 24.008840 -3.238815 -0.944799 0.013078 9.929484 7.125000 0.000000 0.000000 
0.470096 17.833294 -0.232035 -0.656251 -0.448945 -3.899455 -19.680966 -12.516660 4.693875 -1.017933 4.720599 16.958284 -1.796621 8.370906 -2.436863 0.640400 -5.119800 -14.250500 21.720550 12.917330 5.374454 -0.246178 -6.008645 18.667445 2.178722 -11.734471 -6.780711 -0.685800 5.294500 -14.750400 0.708797 1.109668 3.035828 -1.081625 0.798048 -7.341299 6.493309 -16.151530 21.418478 3.701500 -8.395900 12.207800 -87.728292 -2.163076 19.659369 14.943181 -18.077226 -1.890821 0.526185 0.774923 2.662185 -7.125000 0.000000 0.000000 85.664745 -1.625163 25.303475 -18.744519 23.977503 -3.230233 -0.946070 0.016360 10.064856 7.125000 0.000000 0.000000 
0.470431 17.833518 -0.231030 -0.610226 -0.432994 -3.898684 -19.734155 -12.512148 4.735579 -1.024278 4.702562 16.911577 -1.794797 8.361995 -2.411275 0.635200 -5.099300 -14.192000 21.669518 12.922271 5.365827 -0.250801 -6.021460 18.706873 2.168694 -11.697554 -6.847073 -0.683600 5.286400 -14.727200 0.706787 1.101720 3.032174 -1.062444 0.795392 -7.335785 6.494059 -16.134240 21.410937 3.712100 -8.392700 12.199800 -87.785243 -2.113595 19.559739 14.963522 -18.107041 -1.895987 0.530208 0.768677 2.774192 -7.125000 0.000000 0.000000 85.651457 -1.650151 25.263175 -18.760748 23.994159 -3.232097 -0.937070 0.010053 10.082192 7.125000 0.000000 0.000000 
0.469873 17.833629 -0.229579 -0.561458 -0.443445 -3.882327 -19.790697 -12.509786 4.747089 -1.028038 4.695252 16.888840 -1.801747 8.390074 -2.397744 0.635900 -5.101900 -14.199300 21.608686 12.927625 5.333650 -0.253503 -6.029550 18.728460 2.166869 -11.690170 -6.857754 -0.718000 5.414900 -15.095700 0.699385 1.115175 3.041605 -1.042748 0.803740 -7.296328 6.559082 -16.150652 21.408112 3.744900 -8.399300 12.214600 -87.806426 -2.111715 19.561948 14.964292 -18.108229 -1.896180 0.532683 0.767067 2.838190 -7.125000 0.000000 0.000000 85.629845 -1.641325 25.266597 -18.773448 24.009595 -3.236295 -0.936800 0.009112 10.063397 7.125000 0.000000 0.000000 
0.468422 17.833071 -0.231588 -0.523848 -0.431609 -3.845718 -19.815434 -12.505260 4.704111 -1.032684 4.686701 16.856507 -1.798538 8.375372 -2.334050 0.620300 -5.040200 -14.023100 21.552009 12.908993 5.248088 -0.257290 -6.041124 18.755294 2.164112 -11.676255 -6.830955 -0.733500 5.471700 -15.259000 0.690349 1.108221 3.036878 -1.026344 0.802000 -7.289503 6.609503 -16.158954 21.425572 3.767200 -8.400200 12.242800 -87.806447 -2.124654 19.532353 14.953100 -18.092742 -1.892951 0.528954 0.769709 2.893533 -7.125000 0.000000 0.000000 85.627099 -1.625152 25.299245 -18.775635 24.012143 -3.236888 -0.936103 0.006776 10.033712 7.125000 0.000000 0.000000 
0.468868 17.833853 -0.232369 -0.521048 -0.407977 -3.837543 -19.825398 -12.545981 4.715594 -1.036183 4.681257 16.838995 -1.802994 8.393813 -2.346514 0.618800 -5.034300 -14.006300 21.531799 12.863162 5.228482 -0.259212 -6.044578 18.768500 2.145805 -11.599950 -6.854344 -0.706800 5.373300 -14.976300 0.681658 1.082677 3.038234 -1.039723 0.789147 -7.276955 6.582105 -16.139574 21.444178 3.750600 -8.389200 12.246000 -87.807393 -2.124833 19.460518 14.950068 -18.089158 -1.891854 0.527483 0.771063 2.908939 -7.125000 0.000000 0.000000 85.623934 -1.625708 25.336816 -18.783765 24.022098 -3.238581 -0.932772 0.009256 10.025503 7.125000 0.000000 0.000000 
0.467864 17.834634 -0.234044 -0.524373 -0.395321 -3.845599 -19.812870 -12.561246 4.709904 -1.035569 4.683740 16.846756 -1.792829 8.355502 -2.371903 0.618100 -5.031500 -13.998300 21.545288 12.864079 5.236187 -0.260989 -6.049163 18.782078 2.150706 -11.622450 -6.865579 -0.696700 5.335700 -14.868600 0.687993 1.078020 3.022884 -1.030754 0.787196 -7.320102 6.555353 -16.115413 21.465369 3.740800 -8.379700 12.249800 -87.845600 -2.076027 19.386208 14.974658 -18.124459 -1.899329 0.526123 0.776150 2.943793 -7.125000 0.000000 0.000000 85.617955 -1.676751 25.327041 -18.812478 24.054013 -3.246770 -0.929349 0.005494 9.997418 7.125000 0.000000 0.000000 
